<svg id="Layer_1" data-name="Layer 1" xmlns="http://www.w3.org/2000/svg" viewBox="0 0 591 616"><defs><style>.cls-1{fill:#2b2e59;}.cls-2,.cls-6{fill:#fff;}.cls-2{opacity:0.2;}.cls-14,.cls-2,.cls-5{isolation:isolate;}.cls-3{fill:#ebebeb;}.cls-4{fill:#4285f4;}.cls-14,.cls-5{opacity:0.1;}.cls-7{fill:#f7989f;}.cls-14,.cls-8{fill:#f9bd9a;}.cls-9{fill:#f9c200;}.cls-10{fill:#b27050;}.cls-11{fill:#78dce9;}.cls-12{fill:#025cf5;}.cls-13{fill:#e0aa00;}.cls-15{fill:#8c5337;}</style></defs><title>Building-product</title><path class="cls-1" d="M97.62,141.33q-.2,3.32-.36,6.63c21.49,2.57,62.57,1.73,102.9-30.67C154.16,42.7,107.42,9.06,107.42,9.06v0c.16.11,4.45,3.22,11.59,9.49A551.34,551.34,0,0,0,97.62,141.33Z"/><path class="cls-2" d="M107.4,9.07A549.26,549.26,0,0,0,82,145,549.32,549.32,0,0,1,107.41,9.08Z"/><path class="cls-1" d="M97.62,141.33A551.34,551.34,0,0,1,119,18.57c-7.14-6.27-11.44-9.37-11.59-9.49A549.32,549.32,0,0,0,82,145a90.61,90.61,0,0,0,15.27,3Q97.42,144.65,97.62,141.33Z"/><path class="cls-2" d="M97.62,141.33A551.34,551.34,0,0,1,119,18.57c-7.14-6.27-11.44-9.37-11.59-9.49A549.32,549.32,0,0,0,82,145a90.61,90.61,0,0,0,15.27,3Q97.42,144.65,97.62,141.33Z"/><path class="cls-3" d="M375.14,115.81c-66.39,31.78-119.66,1-121.34,0h0c-44.27,147.58-23.49,291.27-6.17,366.67,7.87,34.29,15,54.46,15,54.46,71.62,30.89,91.9,28.94,101.27,0q9.37-28.94,16.34-56.45C420.57,321.73,375.52,116,375.14,115.81Z"/><path class="cls-4" d="M174.53,476.36s11-2.49,18.14,4.87c0,0-4.62,4.15-15.47-.45Z"/><path class="cls-4" d="M173.32,476.25s-6.49,9.2-2.37,18.64c0,0,5.61-2.7,5.45-14.49Z"/><path class="cls-4" d="M166,462.39s3.89-8.43,22.41,1.76c0,0-2,5.63-9.86,5.71S168.34,466.53,166,462.39Z"/><path class="cls-4" d="M211.95,406.07s6.64-1.52,11,2.95c0,0-2.8,2.49-9.36-.27Z"/><path class="cls-4" d="M211.22,406s-3.92,5.56-1.43,11.26c0,0,3.39-1.66,3.32-8.76Z"/><path class="cls-4" d="M206.81,397.62s2.35-5.09,13.53,1.07c0,0-1.2,3.4-6,3.44S208.23,400.13,206.81,397.62Z"/><path class="cls-4" d="M206.09,397.32s-5.61-.26-5.3,12.5c0,0,3.58.5,5.81-3.7S207.66,399.74,206.09,397.32Z"/><path class="cls-4" d="M202.17,387.38s2.55-8.87,14.3-3.47c0,0-2.05,8.13-12.94,6.34Z"/><path class="cls-4" d="M197.82,374.66s5.3-9.13,16.3-1.73c0,0-3.11,8.47-15.2,4.79Z"/><path class="cls-4" d="M201.86,387.2s-8.15-4.33-12.45,7.89c0,0,7.28,4.15,13.56-4.91Z"/><path class="cls-2" d="M233.09,344.16c-1.55-.71-3.15-1.39-4.86-2L225.86,344c-13.57,11-80.4,68.74-64.11,133.22,18.09,71.66,22.2,121.88,22.2,121.88h7.41s-4.11-50.23-22.24-121.89C152.89,413,219.08,355.47,233.09,344.16Z"/><path class="cls-5" d="M247.38,462.4a31.74,31.74,0,0,0-6.23,1.78A812.85,812.85,0,0,1,225.82,344c1.53-1.22,2.37-1.87,2.37-1.87C295.51,366.87,247.38,462.4,247.38,462.4Z"/><circle class="cls-6" cx="315.59" cy="233" r="51.41"/><path class="cls-7" d="M380.28,480.52q-4.73,18.63-10.54,37.89-2.76,9.19-5.81,18.53c-3.05,9.34-29.65,30.89-101.27,0,0,0-2.32-6.55-5.81-18.53-2.61-9-5.85-21.18-9.24-35.94,0,0,26.66,11.38,64.51,11.38A177.73,177.73,0,0,0,380.28,480.52Z"/><path class="cls-3" d="M369.73,518.41q-2.76,9.19-5.81,18.53c-3.05,9.34-29.65,30.89-101.27,0,0,0-2.32-6.55-5.81-18.53C256.83,518.41,329.83,539.41,369.73,518.41Z"/><path class="cls-2" d="M278.68,536.95s-7.16-20.18-15-54.46c-17.07-74.32-37.5-215,4.3-360.3.61-2.12-.39,2.4.25.27l-14.44-6.65c-44.27,147.58-23.49,291.27-6.17,366.68,7.87,34.28,15,54.46,15,54.46,28.3,12.19,50,14.75,66,13.39C315,549.3,298.43,545.46,278.68,536.95Z"/><path class="cls-8" d="M451.73,266.37c.52,1.16,3,4,2.84,5.3-.13,1.55-3.1,3.23-4.27,4.27a6,6,0,0,1-3,1.81,4.45,4.45,0,0,1-3.75-1.42,19.53,19.53,0,0,1-2.33-3.36,34.64,34.64,0,0,0-5.17-6.34c-2.72-2.59-5.95-4.78-7.89-8a15.58,15.58,0,0,1-1.68-9.7c.39-2.46,1.16-5,3.1-6.46a7.8,7.8,0,0,1,7-.78,19.33,19.33,0,0,1,6.21,3.88,12.49,12.49,0,0,1,2.84,3,18.24,18.24,0,0,1,1.94,6.21A59.19,59.19,0,0,0,451.73,266.37Z"/><path class="cls-9" d="M446,271.93a12.17,12.17,0,0,0-6.46,6.46c0,.26,0,1-.26,1,8.92,12.28,19.14,24.83,21.85,39.7.78,4.78,4.91,8.53,9.31,10.73s9.31,3.36,13.71,5.56a61.56,61.56,0,0,1,6.34,3.62l13.19,8.28a15.23,15.23,0,0,1,2.84,2.2c1.55,1.68,1.55,4.53,3,6.46a8.24,8.24,0,0,0,6.34,3,22.16,22.16,0,0,0,7.11-1.16,25.32,25.32,0,0,0,8-3.75,11.17,11.17,0,0,0,4.53-7.24,15.41,15.41,0,0,0-.78-5.95,17.15,17.15,0,0,0-2.46-5.43c-3-4.27-8.28-6.21-13.45-7.24s-10.47-1.29-15.39-3.1c-6.08-2.33-11.51-7.24-18-8.28a71.08,71.08,0,0,1-9.57-12L471,297.66a71.08,71.08,0,0,1-4.65-7.37c-1.16-2.33-2.2-4.78-3.49-7-2.84-4.65-7.37-8.66-7.89-14C452,270,448.76,270.37,446,271.93Z"/><path class="cls-1" d="M113.86,593.85a9.06,9.06,0,0,1,4.87,1.59,6.78,6.78,0,0,1,2,3.71,9.87,9.87,0,0,1-1.34,8.3,9.27,9.27,0,0,1-3.77,2.81c-5.17,2.23-11.08.61-16.46-1L78.1,602.9a7.08,7.08,0,0,1-3.43-1.78,4.65,4.65,0,0,1-.09-5.42,10.57,10.57,0,0,1,4.47-3.56c6.57-3.19,14-3.93,21.22-4.06,2.68-.06,5.32-.64,7.14,1.43,1,1.12.79,2.3,2.23,3.25A9.67,9.67,0,0,0,113.86,593.85Z"/><path class="cls-1" d="M74,582.25a8.93,8.93,0,0,1,4.87,1.57,6.89,6.89,0,0,1,2,3.71,9.86,9.86,0,0,1-1.34,8.3,9.29,9.29,0,0,1-3.77,2.83c-5.17,2.23-11.08.6-16.46-1l-21.08-6.35a7,7,0,0,1-3.43-1.78,4.65,4.65,0,0,1-.09-5.42,10.51,10.51,0,0,1,4.47-3.56c6.57-3.19,13.95-3.93,21.16-4.06,2.67,0,5.32-.64,7.14,1.43,1,1.12.79,2.31,2.23,3.25A9.84,9.84,0,0,0,74,582.25Z"/><path class="cls-1" d="M92.34,353.46a259.61,259.61,0,0,0-37.39-1,7.34,7.34,0,0,0-2.42.38c-2.75,1.12-3.17,4.71-3.44,7.66-1,11.91-6.31,23-8.93,34.72-1.54,7.34-4.46,49.32-4.33,53.33-.12,6.3-4.94,79.48-5.36,82.64-1.25,9.39.36,50,.08,51.12-.45,1.71,1.35,3.12,3,3.84,12.12,5.46,27.74,1.61,35.91-8.88-1.41-.22-2.83-17.57-3.18-19.3a47,47,0,0,1-.67-5.74c-.6-6.92,9.59-93.63,12.08-107l4.2-22.56c.61-3.35,1.3-6.82,3.35-9.51,2.18,10,4.52,45.43,5.3,48.61,1.74,7,.73,14.35,1.12,21.55.15,2.9-3.14,34.08-7.41,46.22-2.62,7.45-3.2,15.91-4.47,23.71-1.18,7.47-2.36,14.94-3,22.48-.55,6.92-.78,14.42-5.09,19.85,3.93,2.56,8,5.16,12.61,6a23.38,23.38,0,0,0,15.56-3,49.13,49.13,0,0,0,12.28-10.45c-.92-.31,17.06-146.1,17.1-151.91l.27-45.78c0-6.2,0-12.53-2-18.38-2.46-7,.35-15.11.77-22.53A92.93,92.93,0,0,1,92.34,353.46Z"/><path class="cls-10" d="M63,230.26a61.92,61.92,0,0,0-3.62-23.2c-1-2.85-2.29-5.74-2.13-8.77.13-2.8,1.49-5.39,2.69-7.93,4.21-8.77,7.16-18.07,10-27.34l5.58-17.46a27.92,27.92,0,0,0,4.9-4.63,24.72,24.72,0,0,0,5.68-12.13A17.11,17.11,0,0,0,83,116a7.41,7.41,0,0,0-5.25-3.18,6.76,6.76,0,0,0-4.9,2.23,21.6,21.6,0,0,0-4.2,7.17c-1.83,4.29-3.68,8.75-3.51,13.4.15,3.86,1.6,8.17-.67,11.31-7.43,10.28-13,22.11-18.92,33.35a59.42,59.42,0,0,0-3.82,8.36,46.36,46.36,0,0,0-2,14.45c-.06,9.16,1.21,18.26,2.46,27.34.78,5.67,1.83,11.86,6.13,15.63C52.84,240.35,57.33,234.75,63,230.26Z"/><circle class="cls-10" cx="91.43" cy="211.45" r="23.17"/><path class="cls-10" d="M80.18,235.85c-.56,4.2-2.8,7.94-5,11.56-1.33,2.23-3,4.61-5.58,4.86a111.67,111.67,0,0,0,21,8.46A23.92,23.92,0,0,0,98.34,262a18.79,18.79,0,0,0,6.4-1.64,31.77,31.77,0,0,0,18-21.22,41.82,41.82,0,0,1-8.6-.66c-1.59-.29-3.29-.76-4.22-2.07a6.8,6.8,0,0,1-.87-3.74q-.17-5.8,0-11.59a45.78,45.78,0,0,0-16.84,2.07c-2.23.73-4.47,1.61-6.76,2.18-1.41.35-5.28,0-6.32.82C77.58,227.35,80.59,233,80.18,235.85Z"/><path class="cls-1" d="M110.26,186.82c.39-1.53.33-3.35-.9-4.38-.61-.48-1.41-.66-2.07-1.12a8.93,8.93,0,0,1-2.23-2.83,12.13,12.13,0,0,0-15.2-3.83c-4,2.11-6.48,6.33-10,9.19-1.83,1.47-3.94,2.57-5.77,4A23.83,23.83,0,0,0,66.57,200a68.75,68.75,0,0,0-2,14.26,12.81,12.81,0,0,0,.17,4.33,11.38,11.38,0,0,0,1.64,3.29C70,227.44,74.9,232.52,81,235.39s13.49,3.35,19.5.35a3.47,3.47,0,0,0,1.5-1.21,4.2,4.2,0,0,0,.22-2.58,17.7,17.7,0,0,1,2-9.87c1.12-2.23,2.78-4.15,3.68-6.48a23,23,0,0,0,1-8C109,200.59,108.5,193.59,110.26,186.82Z"/><path class="cls-10" d="M132.16,221.93a146,146,0,0,1,17.1-27,44,44,0,0,0,3.8-5.18c2.4-4.15,3.12-9.06,4.63-13.61,4.24-12.77,14.83-23,17.41-36.25.94-4.79,4-8.93,6.09-13.4,1.43-3,3-6.14,5.83-7.82,3.65-2.23,8.7-1.19,11.74,1.79a13.91,13.91,0,0,1,3.58,11.78,9.84,9.84,0,0,1-2.17,5.29c-1.62,1.82-4,2.65-6.23,3.74a24.45,24.45,0,0,0-12,13.72c-3.73,10.79-4.2,22.2-8.93,32.6s-10.3,20.39-14.39,31c-2.31,6-4.18,12.28-7.57,17.87s-8.73,10.26-15.14,11.1A38,38,0,0,0,134,235.71C132.66,231.27,130.13,226,132.16,221.93Z"/><path class="cls-11" d="M79.32,237c-2.39-.52-5-.47-7.11-1.65-3.66-2-4.77-7-8.27-9.31s-8.51-1-11.57,1.89-4.61,7-5.86,11c-1.87,5.45-1,22.22,0,23.11,2.65,3,3.36,18.29,4.34,21.85,2.23,9.84,4.47,19.69,6.25,29.61a18.85,18.85,0,0,1,.42,5.58,112.67,112.67,0,0,0-.8,11.72,9.24,9.24,0,0,1-.67,2.83c-2.55,7.37-9.39,24.23-9.31,32,11.89-3,29.42-3.73,41.7-3.77a87.59,87.59,0,0,1,10.13.45c8.07.86,16.34,3.22,24.16,1,7.26-2,13.64-9.5,14.93-28.89-3.88-29.74-2.66-36.28,1.12-53.87,1.37-6.32,5-25.5,6.51-25.47a142.25,142.25,0,0,0-2.79-30.07c-.75-3.52-2.3-7.67-5.84-8.27-3.19-.54-5.88,2.16-8.44,4.14s-14.35,9.1-15.6,10.65c-2.23,2.78-7.22,2.53-8.81,5.74C103.39,238.32,85.41,238.48,79.32,237Z"/><path class="cls-7" d="M247.38,462.4a31.74,31.74,0,0,0-6.23,1.78c-44.78,17.88-44,134.93-44,134.93H183.95s-4.15-50.23-22.24-121.89C145.41,412.74,212.25,355,225.82,344c1.53-1.22,2.37-1.87,2.37-1.87C295.51,366.87,247.38,462.4,247.38,462.4Z"/><path class="cls-7" d="M463.47,477.12C445.34,548.79,441.26,599,441.26,599H428.05s.83-122.32-47.09-136a26.18,26.18,0,0,0-3.16-.74S329.65,366.74,397,342c0,0,.68.51,1.91,1.49C411.37,353.5,479.95,411.9,463.47,477.12Z"/><path class="cls-8" d="M448.37,266.37c.52,1.16,3,4,2.84,5.3-.13,1.55-3.1,3.23-4.27,4.27a6,6,0,0,1-3,1.81,4.45,4.45,0,0,1-3.75-1.42,19.53,19.53,0,0,1-2.33-3.36,34.64,34.64,0,0,0-5.17-6.34c-2.72-2.59-5.95-4.78-7.89-8a15.58,15.58,0,0,1-1.68-9.7c.39-2.46,1.16-5,3.1-6.46a7.8,7.8,0,0,1,7-.78,19.33,19.33,0,0,1,6.21,3.88,12.49,12.49,0,0,1,2.84,3,18.24,18.24,0,0,1,1.94,6.21A68.9,68.9,0,0,0,448.37,266.37Z"/><path class="cls-12" d="M500.73,328.56c-3.23,3.62-7.89,6.34-12.67,6.21-2.07-.13-4-.65-5.95-.78-2.33-.13-4.65.13-6.85-.26-3.1-.52-5.69-2.2-8.66-3-2.07-.52-4.27-.65-6.34-1.16-4.53-1-8.4-3.88-12.8-5-2.2-.52-4.65-.65-6.72-1.81a5.56,5.56,0,0,1-2.59-5.95c1.42-7.63-2.59-15.26-1.94-22.89a49.82,49.82,0,0,1,1-6.34,66.54,66.54,0,0,0,.26-16c0,2.33,2.2,4,4.53,4.27s4.53-.78,6.59-1.68c.39,5.69.65,11.51,1.94,17.2s3,11.9,7,16.16a17.13,17.13,0,0,0,4.53,3A48.61,48.61,0,0,0,468,313c7.89,2.59,16.55.52,25,.39a52.66,52.66,0,0,1,14.87,1.81C505.91,319.64,503.84,324.68,500.73,328.56Z"/><path class="cls-13" d="M500.73,328.56c-3.23,3.62-7.89,6.34-12.67,6.21-2.07-.13-4-.65-5.95-.78-2.33-.13-4.65.13-6.85-.26-3.1-.52-5.69-2.2-8.66-3-2.07-.52-4.27-.65-6.34-1.16-4.53-1-8.4-3.88-12.8-5-2.2-.52-4.65-.65-6.72-1.81a5.56,5.56,0,0,1-2.59-5.95c1.42-7.63-2.59-15.26-1.94-22.89a49.82,49.82,0,0,1,1-6.34,66.54,66.54,0,0,0,.26-16c0,2.33,2.2,4,4.53,4.27s4.53-.78,6.59-1.68c.39,5.69.65,11.51,1.94,17.2s3,11.9,7,16.16a17.13,17.13,0,0,0,4.53,3A48.61,48.61,0,0,0,468,313c7.89,2.59,16.55.52,25,.39a52.66,52.66,0,0,1,14.87,1.81C505.91,319.64,503.84,324.68,500.73,328.56Z"/><path class="cls-8" d="M509.78,550.57c-2.72,1.42-4.14,6.59-5,9.18-1,3-1.94,6.46-.26,9.18,1.42,2.33,4.27,3.23,6.21,5,2.72,2.46,3.49,6.21,4.14,9.7.52,2.59,1,5.43,3.1,7.11s4.53,1.55,6.85.91a7.93,7.93,0,0,0,3-1.42,7.28,7.28,0,0,0,2.2-3.36c1.55-4,1.81-8.53,1.68-12.8,0-5.43-.39-10.86-2.46-15.77a10.42,10.42,0,0,0-3.75-5,11.73,11.73,0,0,0-4.27-1.29C518.45,551.47,512.89,549.27,509.78,550.57Z"/><path class="cls-8" d="M420.18,559.75c-.91-.52-3.23.65-4.27.78-3.1.52-6.34,1.55-8,4.14-2.2,3.1-1.42,7.5-3.23,10.86-1.42,2.72-4.27,4.27-6.85,5.95s-5.17,3.88-5.82,6.85a9.8,9.8,0,0,0,0,3.88c.13.39.13.91.52,1h.65c12.28-1.55,24.7-5.82,33.62-14.48a6.08,6.08,0,0,0,1.16-1.55c.65-1.68-.91-3.36-2.07-4.78a19.88,19.88,0,0,1-4.27-7.76C421.21,563.63,421.09,560.26,420.18,559.75Z"/><path class="cls-1" d="M523.88,553.8a5.68,5.68,0,0,1,.91,2.84c1,9.05.65,18.1,2.33,27a5.52,5.52,0,0,1,.13,3.23,2,2,0,0,1-2.46,1.55c-.78-.26-1.16-1.16-1.55-1.94a10,10,0,0,0-9.05-5.69l.13,3.62a2.2,2.2,0,0,1-.13.91,1.78,1.78,0,0,1-.52.39l-2.84,1.94c-2.07,1.29-4.27,3.1-4.4,5.56a3.58,3.58,0,0,0,.65,2.07,5.2,5.2,0,0,0,2.59,1.16c4.91,1,10,2.07,15,1.42,2.33-.39,4.78-1.16,6.34-3s1.81-3.88,2.2-6.08c.65-3.75,1.16-7.37,1.55-11.12a23.42,23.42,0,0,1,1.55-7.37c0-.26.26-.39.39-.52s.39,0,.65-.13a1.1,1.1,0,0,0,.39-.65,44.84,44.84,0,0,0,1.29-11,5.28,5.28,0,0,0-.39-2.84,5.91,5.91,0,0,0-4-3,21.55,21.55,0,0,0-5-.65,24.69,24.69,0,0,1-4.27-.78,4.4,4.4,0,0,0-1.81-.26,1.14,1.14,0,0,0-1,1.16C522.59,552.51,523.49,553.15,523.88,553.8Z"/><path class="cls-1" d="M395,581.47c-3,1.81-5.43,4.4-8.66,5.95-1,.52-2.2.91-3.36,1.55a19.71,19.71,0,0,0-6.46,6.59c-.91,1.42-1.68,3.23-.78,4.65a3.67,3.67,0,0,0,1.29,1.16,8.32,8.32,0,0,0,4.53,1.29c.91-.13,1.94-.52,2.84-.65,1.29-.26,2.59-.13,3.88-.26a23.91,23.91,0,0,0,5.43-1.42l6.34-2.2a25.42,25.42,0,0,0,5.17-2.07c1-.52,1.94-1.16,3-1.68s2.46-.91,3.62-1.16l3.62-1a3.82,3.82,0,0,1,1.68-.26c.52.13.91.39,1.42.52a4.81,4.81,0,0,0,2.33-.26L425,591a8.26,8.26,0,0,0,2.46-1c1.94-1.29,2.2-4,2.2-6.34a48.14,48.14,0,0,0-1.16-10.47c-1.29.52-1.94,1.94-2.72,3.1a17.67,17.67,0,0,1-3,3.23,44.68,44.68,0,0,1-23.92,10.86,2.24,2.24,0,0,1-1.29-.13c-.65-.39-.65-1.42-.26-2.2s1-1.29,1.42-1.94C400,583.93,398.2,579.53,395,581.47Z"/><path class="cls-8" d="M502.54,320.28a27.72,27.72,0,0,0,2.07-9.7v-.26c0-2.2-1.29-7,.39-8.28s7,.39,9.05.65a63.93,63.93,0,0,0,11.12.26,56,56,0,0,0-2.46,10.21,21,21,0,0,0,.39,8c1.29,5,4.78,9.05,8.28,12.93a165,165,0,0,1-26.38,2.2,52.08,52.08,0,0,1-6.34-.39,26.8,26.8,0,0,1-11.12-4.4C494.14,331.14,499.83,326.23,502.54,320.28Z"/><path class="cls-14" d="M505,302.05c1.81-1.42,7,.39,9.05.65a63.93,63.93,0,0,0,11.12.26,56,56,0,0,0-2.46,10.21,22.68,22.68,0,0,1-18.23-2.84C504.48,308.13,503.19,303.35,505,302.05Z"/><circle class="cls-8" cx="516.64" cy="290.67" r="22.11"/><path class="cls-9" d="M439.32,383.38a88.41,88.41,0,0,0,8-10.34l10.86-15.52c1.81-2.72,3.75-5.43,4.53-8.66,1-3.88.13-7.89,1-11.77a16.23,16.23,0,0,1,5.95-8.66,29.26,29.26,0,0,1,2.59-1.68c4-2.33,8.53-3.36,13.06-4.27a7.58,7.58,0,0,1,3-.13c2.2.52,3.36,3.1,5.56,3.75l4.4,1.16c4,1.16,8.15,2.2,12.28,1.94a37.08,37.08,0,0,0,4-.65c3.88-.78,7.76-2.07,11.64-1s6.85,4.14,9.05,7.5a11.84,11.84,0,0,1,2.07,4c0,.26.13.39.13.65.39,2.33-.52,4.53-1.29,6.72A117.71,117.71,0,0,1,531,358a29.21,29.21,0,0,1-2.07,3.36c-2.59,3.88-5.95,7.11-9.18,10.34-6.46,6.46-13.19,12.93-21.33,17.07-2.84,1.42-5.82,2.59-7.89,4.78-1,1-1.94,2.46-3.36,2.84-1,.26-1.94,0-2.84.39-1.29.52-1.68,1.94-2.33,3.23s-1.94,2.46-3.23,1.94a6.09,6.09,0,0,1-2.33,6.21,5.51,5.51,0,0,0-1.55,1.42,6.5,6.5,0,0,0-.26,1.55,6.86,6.86,0,0,1-4,5,16.8,16.8,0,0,1-6.59,1.42c-10.34.52-20.82-1.42-30.9-3.88a19.42,19.42,0,0,1-5.43-1.94,10.58,10.58,0,0,1-5-8.92C422.77,394.24,433.5,389.46,439.32,383.38Z"/><path class="cls-1" d="M370.4,500.53c.26-3.49,2.46-6.72,3.23-10.21,3.36-14.35,11.51-27.54,16.42-41.38a102.75,102.75,0,0,1,4-10.47c3-6.59,7.24-12.41,11.51-18.23a40.2,40.2,0,0,1,5-6.34c1.55-1.55,3.23-2.84,4.65-4.53,2.84-3.36,4.14-8.28,7.76-10.86,1.16,2.84,3,5.69,5.69,7.24a17.35,17.35,0,0,0,6.72,1.81l20.3,2.72a91.13,91.13,0,0,1,13.19,2.46,6.84,6.84,0,0,1,2.72,1.42c1.81,1.94.65,5,.65,7.76a23.1,23.1,0,0,0,1.16,5.95c1.29,5.82.52,11.9-.52,17.71-.65,3.23-1.42,6.59-3.49,9.05-.65.78-1.42,1.55-2.2,2.33a23.73,23.73,0,0,0-3.36,5.17,40.4,40.4,0,0,0-3.75,11.77,24.29,24.29,0,0,1-1.81,5.95c-1.29,2.84-.13,6.34-1.29,9.31-.52,1.42-1.55,2.46-1.81,3.88-.39,2.07.65,4,.91,6.08.65,4.78-2.84,9.31-3.1,14.09a.86.86,0,0,0,.13.78c.13.26.65.26.91.39.52.39.65,1.16.91,1.81s.78,1.42,1.42,1.16c10,5.3,20.3,10.21,30.26,15.52l4.53,2.46,24.31,12.93a1.68,1.68,0,0,1,1,1.55,26.07,26.07,0,0,1-2.33,8.79,35.65,35.65,0,0,1-4.91,9.31,12.51,12.51,0,0,1-8.92,4.91c-3.62-4.78-8.66-8.15-13.84-11.38-4.14-2.59-8.53-4.91-12.93-7.11-3.49-1.68-7.11-3.36-10.86-4.91-5.3-2.07-10.6-4-15.9-5.95a73.07,73.07,0,0,1-10.34-4.4c-8.53-4.91-14.48-14.61-13.32-24.31,1.42-12.28-1.68-25-1.42-37.37.13-3.62.13-7.37,1.29-10.73-.26.26-.52.39-.78.65-2.2,2.07-2.72,5.3-4.78,7.63-1.68,1.94-4.14,3.1-5.17,5.3-.78,1.68-.65,4-2.2,5-.39.26-1,.39-1.42.65a6.78,6.78,0,0,0-1.29,1.42c-1.68,2.33-3.49,4.91-3.62,7.76,0,1.16.13,2.46-.78,3.23a1.56,1.56,0,0,0-.65.65c-.26.65.39,1.29.52,1.94.26.91-.78,1.55-1.29,2.33a3.5,3.5,0,0,0,0,4.4c4.91,6.34,5.82,15,10.21,21.85,1.55,2.33,3.23,4.53,4.65,7,4.53,7.37,6.72,15.9,8.92,24.18a14.19,14.19,0,0,1-3.75,4.14l-1.16.78a51.62,51.62,0,0,1-18.88,6.72c-2.33-9.05-4.91-18.36-9.57-26.51-1.94-3.23-4-6.34-5.82-9.57-1.55-3-2.84-6.21-4.27-9.31-2.46-5.17-5.43-10.21-8.28-15.39C371.82,508.16,370,504.41,370.4,500.53Z"/><path class="cls-5" d="M477.85,393.34c-.65-.65-.91-.65-.78.39.26,2.2,3.23,3.49,3.75,5.69a6,6,0,0,0-.78-3C479.14,395.54,478.75,394.11,477.85,393.34Z"/><path class="cls-5" d="M468.54,402.91c0,.65,1.68,1.94,2.07,2.59a15.76,15.76,0,0,1,.91,2.2,1.72,1.72,0,0,0,.78,1.29,5,5,0,0,0-.26-3.62,4.6,4.6,0,0,0-1.42-2.07C470.22,402.91,468.54,402,468.54,402.91Z"/><path class="cls-5" d="M472,326.62c4-2.33,8.53-3.36,13.06-4.27a7.58,7.58,0,0,1,3-.13c2.2.52,3.36,3.1,5.56,3.75l4.4,1.16c4,1.16,8.15,2.2,12.28,1.94a37.08,37.08,0,0,0,4-.65c2.72.39,5.43.78,8.15,1.29,5,.91,10.47,3,13.45,7.24a7.72,7.72,0,0,1,1.16,1.94,17.57,17.57,0,0,1,1.42,3.62,15.4,15.4,0,0,1,.78,5.95,11.68,11.68,0,0,1-4.65,7.24,18.85,18.85,0,0,1-3.88,2.2,36.54,36.54,0,0,1-4,1.42,22.16,22.16,0,0,1-7.11,1.16,8.92,8.92,0,0,1-6.34-3c-1.42-1.81-1.42-4.78-3-6.46a11.94,11.94,0,0,0-2.84-2.2l-13.19-8.28a62.68,62.68,0,0,0-6.34-3.75c-4.4-2.2-9.31-3.36-13.71-5.56a22.47,22.47,0,0,1-4.65-3.1A12.91,12.91,0,0,1,472,326.62Z"/><path class="cls-15" d="M509,278a15.77,15.77,0,0,1,3.36,8.92c.26,4.27-.39,8.53-.78,12.8-.52,7.24.26,14.87,4.78,20.56,2.46,3.23,5.95,5.43,9.05,8s5.95,5.82,6.72,9.83c1,5.3-2.07,10.6-1.81,16a26.5,26.5,0,0,0,1.94,7.63c1.16,3.1,2.46,6.46,5,8.53,3,2.46,7,2.59,10.86,2.72l14.87.39c-5-7.37-5.56-16.94-5.17-25.86.91-23,5.3-46.29,1.16-68.92-.52-2.72-1.16-5.43-2.84-7.63-2.33-2.84-5.95-4.14-9.44-5s-7.11-1.29-10.47-2.72c-2.84-1.16-5.3-3.23-8.28-3.88-2.07-.52-4.4-.13-6.59.13-2.72.39-5.3.91-8,1.42s-5.82,1.42-7.24,3.88a8.38,8.38,0,0,0-.91,4.65C505.52,273.48,506.81,275.29,509,278Z"/><path class="cls-5" d="M505.39,269.47c.26,3.88,1.55,5.69,3.88,8.53a15.77,15.77,0,0,1,3.36,8.92c.26,4.27-.39,8.53-.78,12.8-.52,7.24.26,14.87,4.78,20.56,2.46,3.23,5.95,5.43,9.05,8s5.95,5.82,6.72,9.83c1,5.3-2.07,10.6-1.81,16a26.5,26.5,0,0,0,1.94,7.63c1.16,3.1,2.46,6.46,5,8.53,3,2.46,7,2.59,10.86,2.72l14.87.39-.78-1.16-10.6-.26c-3.75-.13-7.89-.39-10.86-2.72-2.72-2.07-3.88-5.43-5-8.53a26.5,26.5,0,0,1-1.94-7.63c-.26-5.43,2.84-10.73,1.81-16-.78-4-3.62-7.24-6.72-9.83s-6.59-4.78-9.05-8c-4.53-5.69-5.3-13.32-4.78-20.56.39-4.27,1.16-8.53.78-12.8a16.13,16.13,0,0,0-3.36-8.92c-2.46-2.72-3.62-4.53-3.88-8.53a8.38,8.38,0,0,1,.91-4.65,6.88,6.88,0,0,1,3.49-2.84c-2.72.65-5.69,1.55-7.11,3.88A8.29,8.29,0,0,0,505.39,269.47Z"/><path class="cls-5" d="M420.31,454l2.07,12.93-.13.52c-2.2,2.07-2.72,5.3-4.78,7.63-1.68,1.94-4.14,3.1-5.17,5.3-.78,1.68-.65,4-2.2,5-.39.26-1,.39-1.42.65a6.78,6.78,0,0,0-1.29,1.42c-1.68,2.33-3.49,4.91-3.62,7.76,0,1.16.13,2.46-.78,3.23a1.56,1.56,0,0,0-.65.65c-.26.65.39,1.29.52,1.94.26.91-.78,1.55-1.29,2.33a3.5,3.5,0,0,0,0,4.4c4.91,6.34,5.82,15,10.21,21.85,1.55,2.33,3.23,4.53,4.65,7,4.53,7.37,6.72,15.9,8.92,24.18a14.19,14.19,0,0,1-3.75,4.14L394.19,498.2Z"/><path class="cls-11" d="M440.51,238.2a42.17,42.17,0,0,1-68.9,32.61,42.61,42.61,0,0,1-7.9-8.57,41.51,41.51,0,0,1-2.72-4.47,42.09,42.09,0,0,1-4.81-19.57v-1a42.22,42.22,0,0,1,30.71-39.61A43.6,43.6,0,0,1,397.05,196h1.26a42.17,42.17,0,0,1,42.19,42.14Z"/><path class="cls-8" d="M455.61,266.37c.52,1.16,3,4,2.84,5.3-.13,1.55-3.1,3.23-4.27,4.27a6,6,0,0,1-3,1.81,4.45,4.45,0,0,1-3.75-1.42,19.53,19.53,0,0,1-2.33-3.36,34.64,34.64,0,0,0-5.17-6.34c-2.72-2.59-5.95-4.78-7.89-8a15.58,15.58,0,0,1-1.68-9.7c.39-2.46,1.16-5,3.1-6.46a7.8,7.8,0,0,1,7-.78,19.33,19.33,0,0,1,6.21,3.88,12.49,12.49,0,0,1,2.84,3,18.24,18.24,0,0,1,1.94,6.21A59.19,59.19,0,0,0,455.61,266.37Z"/><path class="cls-9" d="M449.92,271.93a12.17,12.17,0,0,0-6.46,6.46c0,.26,0,1-.26,1,8.92,12.28,19.14,24.83,21.85,39.7.78,4.78,4.91,8.53,9.31,10.73s9.31,3.36,13.71,5.56A61.56,61.56,0,0,1,494.4,339l13.19,8.28a15.23,15.23,0,0,1,2.84,2.2c1.55,1.68,1.55,4.53,3,6.46a8.24,8.24,0,0,0,6.34,3,22.16,22.16,0,0,0,7.11-1.16,25.32,25.32,0,0,0,8-3.75,11.17,11.17,0,0,0,4.53-7.24,15.41,15.41,0,0,0-.78-5.95,17.15,17.15,0,0,0-2.46-5.43c-3-4.27-8.28-6.21-13.45-7.24s-10.47-1.29-15.39-3.1c-6.08-2.33-11.51-7.24-18-8.28a71.08,71.08,0,0,1-9.57-12l-4.91-7.11a71.08,71.08,0,0,1-4.65-7.37c-1.16-2.33-2.2-4.78-3.49-7-2.84-4.65-7.37-8.66-7.89-14C455.87,270,452.63,270.37,449.92,271.93Z"/></svg>